<svg width="64" height="32" viewBox="0 0 64 32" fill="none" xmlns="http://www.w3.org/2000/svg">
<path d="M0.5 4C0.5 2.067 2.067 0.5 4 0.5H60C61.933 0.5 63.5 2.067 63.5 4V28C63.5 29.933 61.933 31.5 60 31.5H4C2.067 31.5 0.5 29.933 0.5 28V4Z" fill="white" stroke="#E3E6E9"/>
<path d="M20.8952 10.4339C20.485 10.9405 19.8286 11.3402 19.1723 11.2831C19.0903 10.598 19.4116 9.87012 19.7876 9.42055C20.1978 8.89962 20.9157 8.52854 21.4968 8.5C21.5652 9.21361 21.2985 9.91294 20.8952 10.4339ZM21.49 11.4186C20.5397 11.3616 19.7261 11.9824 19.2749 11.9824C18.8168 11.9824 18.1263 11.4472 17.3742 11.4615C16.3966 11.4757 15.4873 12.0538 14.9882 12.9743C13.9627 14.8154 14.7216 17.5414 15.7129 19.04C16.1983 19.7821 16.7795 20.5956 17.5452 20.5671C18.2699 20.5385 18.557 20.0747 19.4321 20.0747C20.314 20.0747 20.567 20.5671 21.3327 20.5528C22.1258 20.5385 22.6249 19.8107 23.1103 19.0685C23.664 18.2265 23.8896 17.4058 23.9033 17.363C23.8896 17.3487 22.3719 16.7422 22.3582 14.9153C22.3445 13.3882 23.5546 12.6603 23.6093 12.6175C22.9257 11.5614 21.8591 11.4472 21.49 11.4186ZM26.9798 9.34919V20.4743H28.6343V16.6708H30.9246C33.0167 16.6708 34.4866 15.1722 34.4866 13.0029C34.4866 10.8335 33.044 9.34919 30.9793 9.34919H26.9798ZM28.6343 10.8049H30.5418C31.9775 10.8049 32.7979 11.6042 32.7979 13.01C32.7979 14.4158 31.9775 15.2222 30.5349 15.2222H28.6343V10.8049ZM37.5084 20.5599C38.5476 20.5599 39.5115 20.0105 39.9491 19.1399H39.9833V20.4743H41.5147V14.9367C41.5147 13.3311 40.2841 12.2964 38.3903 12.2964C36.6333 12.2964 35.3343 13.3454 35.2865 14.7869H36.7769C36.8999 14.1018 37.5084 13.6522 38.3425 13.6522C39.3543 13.6522 39.9218 14.1446 39.9218 15.0509V15.6646L37.8571 15.7931C35.9359 15.9144 34.8968 16.735 34.8968 18.1622C34.8968 19.6037 35.9701 20.5599 37.5084 20.5599ZM37.9528 19.2398C37.0708 19.2398 36.5102 18.7973 36.5102 18.1194C36.5102 17.4201 37.0503 17.0133 38.0827 16.9491L39.9218 16.8278V17.4558C39.9218 18.4976 39.074 19.2398 37.9528 19.2398ZM43.5589 23.5C45.1724 23.5 45.9312 22.8578 46.5944 20.9096L49.5 12.4034H47.8182L45.8697 18.9757H45.8355L43.8871 12.4034H42.1574L44.9604 20.5029L44.81 20.9952C44.557 21.8302 44.1468 22.1513 43.4153 22.1513C43.2854 22.1513 43.0325 22.137 42.9299 22.1227V23.4572C43.0256 23.4857 43.4358 23.5 43.5589 23.5Z" fill="#22272E"/>
</svg>
