<svg width="64" height="32" viewBox="0 0 64 32" fill="none" xmlns="http://www.w3.org/2000/svg">
<path d="M0.5 4C0.5 2.067 2.067 0.5 4 0.5H60C61.933 0.5 63.5 2.067 63.5 4V28C63.5 29.933 61.933 31.5 60 31.5H4C2.067 31.5 0.5 29.933 0.5 28V4Z" fill="white" stroke="#E3E6E9"/>
<path d="M21.7673 9.01091C21.4031 9.05183 21.0736 9.35328 20.989 9.71933C20.9738 9.77746 20.9652 10.3674 20.9652 11.2718V12.7317H20.4145C20.1131 12.7317 19.8118 12.7425 19.7489 12.7532C19.3912 12.82 19.1029 13.0999 19.0227 13.4595C18.9034 13.9935 19.2676 14.5146 19.8118 14.5856C19.892 14.5942 20.1825 14.6028 20.46 14.605H20.963L20.9695 16.3211C20.9782 18.2073 20.9738 18.1277 21.1191 18.6897C21.2492 19.1957 21.4746 19.6974 21.763 20.128C22.4372 21.1314 23.4085 21.7171 24.7266 21.9173C25.0951 21.9755 26.0317 21.9755 26.3742 21.9173C27.2609 21.7731 27.9742 21.4522 28.6419 20.8946C29.3183 20.3347 29.8191 19.6091 30.0815 18.8145C30.2484 18.3107 30.3091 17.9145 30.3091 17.331C30.3091 16.0347 29.8495 14.9603 28.9043 14.043C28.1498 13.3066 27.3802 12.9319 26.3092 12.7726C26.1921 12.7554 25.6068 12.7446 24.4838 12.7381L22.8318 12.7295L22.8253 11.205L22.8188 9.68272L22.7386 9.52123C22.5565 9.15518 22.1901 8.96354 21.7673 9.01091ZM26.3677 14.6631C26.9748 14.8332 27.4777 15.1713 27.8701 15.6708C28.1368 16.0132 28.2929 16.3426 28.3818 16.7604C28.4381 17.0274 28.449 17.5721 28.4035 17.8348C28.2669 18.6014 27.7964 19.2775 27.094 19.7167C26.6127 20.016 26.0035 20.1517 25.3922 20.0957C24.6876 20.0311 24.1607 19.7813 23.6578 19.2732C23.2437 18.8555 23.0009 18.399 22.9033 17.8564C22.8578 17.5958 22.8318 16.7991 22.8296 15.6213V14.6028L24.5163 14.6093C26.1705 14.6158 26.203 14.6179 26.3677 14.6631Z" fill="#22272E"/>
<path d="M35.2788 9.00792C34.9016 9.04883 34.5634 9.37182 34.4919 9.75509C34.4789 9.82615 34.4702 10.4334 34.4702 11.299V12.7287H34.2144C33.8155 12.7287 33.5987 12.8041 33.384 13.0151C33.2475 13.1529 33.1521 13.3445 33.1304 13.5254C33.0935 13.8376 33.1716 14.0766 33.3775 14.2984C33.5835 14.5202 33.822 14.5998 34.2707 14.602H34.4702V16.1911C34.4702 17.4378 34.4767 17.834 34.5005 18.0278C34.6696 19.3735 35.3482 20.5406 36.3563 21.2167C37.0414 21.6775 37.8544 21.923 38.8105 21.9596C39.1205 21.9703 39.1942 21.966 39.3156 21.9337C39.5866 21.8605 39.8034 21.6775 39.927 21.4148C39.9833 21.2985 39.9877 21.2662 39.9877 21.0401C39.9877 20.814 39.9833 20.7817 39.927 20.6655C39.8467 20.4911 39.734 20.3619 39.5844 20.265C39.4197 20.1595 39.2636 20.1207 38.9254 20.1056C38.2338 20.0712 37.7438 19.9205 37.3341 19.619C36.8636 19.2702 36.5428 18.7254 36.4019 18.0321C36.3585 17.8232 36.3563 17.7457 36.3563 16.2083V14.602H37.5552C38.275 14.602 38.8083 14.5934 38.8928 14.5783C39.0966 14.546 39.2874 14.4513 39.424 14.3135C39.9421 13.7838 39.6711 12.9053 38.9405 12.7524C38.8647 12.7373 38.4159 12.7287 37.5921 12.7287H36.3563V11.3226C36.3563 10.442 36.3477 9.86706 36.3325 9.77878C36.3 9.57637 36.2002 9.3912 36.0506 9.25339C35.8317 9.05099 35.5867 8.97347 35.2788 9.00792Z" fill="#22272E"/>
<path d="M31.4323 10.1685C30.7646 10.3817 30.4871 11.1676 30.8687 11.7554C31.2264 12.3045 32.0285 12.3842 32.5011 11.9169C32.8892 11.5315 32.913 10.892 32.5553 10.4786C32.4469 10.3537 32.2388 10.2223 32.0719 10.1707C31.8898 10.1147 31.6058 10.1147 31.4323 10.1685Z" fill="#E01A33"/>
<path d="M31.5054 12.7671C31.2431 12.8274 30.9764 13.0621 30.8702 13.327L30.8181 13.4519L30.8116 17.2631C30.8073 19.9826 30.8116 21.1152 30.829 21.2142C30.8983 21.6147 31.2582 21.9334 31.6701 21.9614C31.9867 21.9829 32.1948 21.9054 32.4246 21.6793C32.5395 21.5652 32.5915 21.4941 32.6306 21.3972L32.6826 21.2681L32.6891 17.4353C32.6934 14.6297 32.6891 13.5681 32.6717 13.4734C32.6045 13.1289 32.3249 12.8425 31.978 12.765C31.7981 12.7241 31.6853 12.7241 31.5054 12.7671Z" fill="#22272E"/>
<path d="M40.4768 18.8507C40.4443 18.868 40.4205 18.9003 40.4161 18.9347C40.4118 18.9692 40.5245 19.2599 40.7218 19.7185C40.8931 20.1211 41.0405 20.4743 41.0492 20.5066C41.0557 20.5389 41.0839 20.5776 41.112 20.5905C41.1424 20.6078 41.4741 20.6315 42.079 20.6551C42.5841 20.6767 43.0068 20.7025 43.0198 20.7154C43.0589 20.7542 42.9461 20.7843 42.2611 20.9006C41.4069 21.047 41.3028 21.0707 41.2443 21.1332C41.1793 21.1978 40.7153 22.6576 40.7153 22.7933C40.7153 22.9526 40.7435 23 40.8411 23C40.9104 23 41.2313 22.8234 42.918 21.8588C44.0128 21.2322 44.9341 20.6917 44.9602 20.6616C45.0425 20.5669 44.9948 20.4334 44.8539 20.3601C44.7347 20.2999 40.75 18.8637 40.6459 18.8443C40.5159 18.8184 40.5419 18.8184 40.4768 18.8507Z" fill="#E01A33"/>
</svg>
