<svg width="19" height="13" viewBox="0 0 19 13" fill="none" xmlns="http://www.w3.org/2000/svg">
<path d="M5.14762 7.56069C5.20367 7.56069 5.25968 7.55747 5.31532 7.55061C5.35761 7.54536 5.40645 7.54193 5.44447 7.52124C5.52424 7.4777 5.52511 7.39831 5.51259 7.32024C5.49787 7.22874 5.4176 7.18165 5.32925 7.19309C5.23555 7.20528 5.13572 7.20247 5.05102 7.15637C4.88601 7.06673 4.84389 6.83664 4.91781 6.67435C4.96213 6.57703 5.05168 6.51259 5.15678 6.49462C5.21113 6.48532 5.26806 6.48788 5.32245 6.49495C5.37589 6.50189 5.42747 6.49239 5.46628 6.45157C5.5125 6.40271 5.53278 6.29824 5.50595 6.2371C5.45836 6.12813 5.30545 6.13284 5.20504 6.13284C5.02573 6.13284 4.84293 6.17692 4.69675 6.28382C4.41756 6.48792 4.34338 6.89902 4.49546 7.20271C4.61843 7.44841 4.88195 7.56069 5.14762 7.56069Z" fill="#A2ADB5"/>
<path d="M6.03265 7.43683C6.08149 7.57083 6.26851 7.53469 6.38029 7.53469C6.45197 7.53469 6.51934 7.51085 6.54663 7.43774C6.55255 7.42369 6.55732 7.40924 6.56267 7.39503C6.64414 7.177 6.72561 6.9589 6.80708 6.74092C6.84489 6.63967 6.8827 6.53843 6.92059 6.43714C6.95421 6.34709 6.98805 6.2389 6.87677 6.18103C6.82391 6.15348 6.75144 6.16414 6.69368 6.16414C6.61839 6.16414 6.54567 6.18281 6.51673 6.26191C6.48531 6.34771 6.46661 6.44007 6.44215 6.52798C6.39381 6.70168 6.34463 6.87438 6.30765 7.05093C6.25695 6.80106 6.17428 6.55615 6.10292 6.31165C6.09036 6.2686 6.07913 6.22734 6.04185 6.19727C5.98995 6.15538 5.92249 6.1641 5.8603 6.1641C5.79388 6.1641 5.72498 6.15678 5.6739 6.20896C5.62962 6.25423 5.62344 6.31669 5.64434 6.3739C5.77378 6.72824 5.90325 7.08249 6.03265 7.43683Z" fill="#A2ADB5"/>
<path d="M7.47991 7.43683C7.52892 7.57079 7.71578 7.53469 7.82763 7.53469C7.89932 7.53469 7.96669 7.51085 7.99389 7.43774C7.99982 7.42369 8.00458 7.40924 8.00993 7.39503C8.0914 7.177 8.17287 6.9589 8.25434 6.74092C8.29215 6.63967 8.32996 6.53843 8.36785 6.43714C8.40148 6.34709 8.43531 6.23886 8.32411 6.18103C8.27125 6.15348 8.19878 6.16414 8.14094 6.16414C8.06565 6.16414 7.99302 6.18277 7.96408 6.26191C7.93265 6.34775 7.91395 6.44007 7.88941 6.52798C7.84107 6.70168 7.79181 6.87438 7.755 7.05093C7.70404 6.8011 7.62162 6.55623 7.55027 6.31165C7.53771 6.26856 7.52639 6.22734 7.48912 6.19727C7.43729 6.15538 7.36975 6.1641 7.30756 6.1641C7.24115 6.1641 7.17232 6.15678 7.12124 6.20896C7.07688 6.25431 7.07071 6.3166 7.0916 6.3739C7.22112 6.72824 7.35052 7.08249 7.47991 7.43683Z" fill="#A2ADB5"/>
<path d="M6.39416 11.0394C7.28985 11.0394 8.1229 10.767 8.81428 10.301H16.9497C17.4548 10.301 17.8656 9.89177 17.8656 9.38852V4.4657H10.0812C9.65363 3.77566 9.0365 3.2142 8.30275 2.85367L17.8655 2.85433V2.04271C17.8655 1.5395 17.4547 1.13022 16.9497 1.13022H3.89878C3.3938 1.13022 2.98294 1.5395 2.98294 2.04271V2.85329L4.48618 2.85338C3.05284 3.55739 2.06419 5.0284 2.06419 6.72532C2.06419 7.33494 2.19123 7.92841 2.43604 8.4759L1.84856 9.02001V2.04271C1.84856 0.916331 2.7683 0 3.89878 0H16.9497C18.0803 0 19 0.916372 19 2.04271V9.38856C19 10.5149 18.0803 11.4313 16.9497 11.4313H3.93104L4.7174 10.703C5.24552 10.9243 5.81438 11.0394 6.39416 11.0394Z" fill="#A2ADB5"/>
<path d="M0.237279 11.7196L3.28261 8.89918C2.8516 8.28407 2.59811 7.53648 2.59811 6.72953C2.59811 4.63316 4.30389 2.93359 6.40796 2.93359C8.51204 2.93359 10.2178 4.63312 10.2178 6.72953C10.2178 8.8259 8.51204 10.5253 6.40796 10.5253C5.65191 10.5253 4.94796 10.3051 4.35538 9.92663L1.24881 12.8039C1.10573 12.9364 0.924265 13.002 0.743211 13.002C0.543915 13.002 0.345199 12.9226 0.198971 12.7657C-0.0803843 12.4662 -0.06322 11.9978 0.237279 11.7196ZM6.40796 4.22285C5.02077 4.22285 3.89219 5.34737 3.89219 6.72953C3.89219 8.11165 5.02077 9.23609 6.40796 9.23609C7.79516 9.23609 8.92374 8.11165 8.92374 6.72953C8.92374 5.34737 7.79516 4.22285 6.40796 4.22285Z" fill="#A2ADB5"/>
</svg>
