<svg width="44" height="34" viewBox="10 0 50 34" fill="none" xmlns="http://www.w3.org/2000/svg">
<rect width="50" height="34" rx="4" fill="none"/>
<path d="M26.3913 8.89113L24.2738 6.7737M26.3913 18.0666L24.2738 20.1841M37.6842 6.7737L35.5667 8.89113M24.4908 13.4789H19.5M30.979 2L30.979 6.99082M28.613 13.7079C27.9611 12.0782 29.5783 10.4611 31.2079 11.1129L45.2448 16.7277C46.7285 17.3212 46.9483 19.3305 45.628 20.2307L42.8803 22.1041L45.6746 24.8984C46.4542 25.678 46.4542 26.942 45.6746 27.7217L45.2216 28.1746C44.442 28.9543 43.178 28.9543 42.3984 28.1746L39.6041 25.3803L37.7307 28.128C36.8305 29.4483 34.8212 29.2285 34.2277 27.7448L28.613 13.7079Z" stroke="black" stroke-width="1.5" stroke-linecap="round" stroke-linejoin="round"/>
</svg>
