<svg width="64" height="32" viewBox="0 0 64 32" fill="none" xmlns="http://www.w3.org/2000/svg">
<path d="M0.5 4C0.5 2.067 2.067 0.5 4 0.5H60C61.933 0.5 63.5 2.067 63.5 4V28C63.5 29.933 61.933 31.5 60 31.5H4C2.067 31.5 0.5 29.933 0.5 28V4Z" fill="white" stroke="#E3E6E9"/>
<path d="M30.9441 16.0705V20.6128H29.5039V9.39529H33.3234C33.7794 9.38576 34.2326 9.46666 34.6572 9.63334C35.0817 9.80002 35.469 10.0492 35.7967 10.3664C36.1278 10.6644 36.3913 11.0298 36.5695 11.4381C36.7477 11.8465 36.8365 12.2883 36.8299 12.7338C36.8394 13.1817 36.752 13.6263 36.5736 14.0373C36.3953 14.4482 36.1303 14.8157 35.7967 15.1146C35.1288 15.7518 34.3044 16.0702 33.3234 16.0696H30.9441V16.0705ZM30.9441 10.7763V14.6921H33.3592C33.624 14.7 33.8875 14.6524 34.1329 14.5526C34.3782 14.4527 34.6001 14.3027 34.7842 14.1121C34.9673 13.934 35.1129 13.7209 35.2123 13.4854C35.3117 13.25 35.3629 12.997 35.3629 12.7414C35.3629 12.4858 35.3117 12.2328 35.2123 11.9974C35.1129 11.7619 34.9673 11.5488 34.7842 11.3706C34.6024 11.1761 34.3813 11.0224 34.1356 10.9198C33.89 10.8171 33.6253 10.7679 33.3592 10.7754H30.9441V10.7763Z" fill="#22272E"/>
<path d="M40.1491 12.6914C41.2136 12.6914 42.0538 12.976 42.6699 13.5453C43.2859 14.1145 43.5936 14.895 43.593 15.8867V20.617H42.2154V19.5519H42.1528C41.5565 20.429 40.7634 20.8676 39.7734 20.8676C38.9284 20.8676 38.2215 20.617 37.6526 20.1157C37.3796 19.8857 37.1613 19.5976 37.0137 19.2724C36.866 18.9473 36.7928 18.5932 36.7992 18.2362C36.7992 17.442 37.0992 16.8104 37.6991 16.3414C38.299 15.8724 39.0999 15.6373 40.1017 15.6361C40.9569 15.6361 41.6612 15.7927 42.2146 16.106V15.7766C42.2162 15.5332 42.1636 15.2924 42.0608 15.0718C41.9579 14.8512 41.8072 14.6563 41.6197 14.5012C41.2389 14.1574 40.7425 13.9698 40.2296 13.9758C39.4252 13.9758 38.7886 14.3153 38.3199 14.9943L37.0515 14.1951C37.7492 13.1926 38.7817 12.6914 40.1491 12.6914ZM38.2859 18.2675C38.2849 18.4509 38.3278 18.6319 38.4109 18.7953C38.4939 18.9588 38.6149 19.1 38.7636 19.2073C39.0821 19.458 39.4774 19.5908 39.8826 19.5832C40.4903 19.5822 41.0728 19.3401 41.5025 18.9101C41.9796 18.4608 42.2181 17.9336 42.2181 17.3286C41.7691 16.9706 41.1429 16.7916 40.3397 16.7916C39.7547 16.7916 39.2669 16.9327 38.8763 17.2149C38.4818 17.5013 38.2859 17.8495 38.2859 18.2675Z" fill="#22272E"/>
<path d="M51.5002 12.9414L46.6914 23.9996H45.2047L46.9892 20.1303L43.8271 12.9414H45.3925L47.678 18.4548H47.7093L49.9321 12.9414H51.5002Z" fill="#22272E"/>
<path d="M25.1241 15.0955C25.1246 14.6563 25.0875 14.218 25.0131 13.7852H18.9395V16.2671H22.4182C22.347 16.6635 22.1963 17.0414 21.9753 17.3779C21.7542 17.7145 21.4673 18.0028 21.1319 18.2254V19.8365H23.208C24.4237 18.715 25.1241 17.0565 25.1241 15.0955Z" fill="#4285F4"/>
<path d="M18.9399 21.3867C20.6779 21.3867 22.1413 20.8157 23.2085 19.8311L21.1323 18.22C20.5545 18.6121 19.8102 18.8358 18.9399 18.8358C17.26 18.8358 15.8342 17.7027 15.3243 16.1758H13.1855V17.8361C13.7216 18.9034 14.5436 19.8006 15.5597 20.4276C16.5758 21.0546 17.7461 21.3866 18.9399 21.3867Z" fill="#34A853"/>
<path d="M15.3246 16.1778C15.055 15.3777 15.055 14.5112 15.3246 13.7111V12.0508H13.1858C12.7349 12.9486 12.5 13.9396 12.5 14.9444C12.5 15.9493 12.7349 16.9402 13.1858 17.8381L15.3246 16.1778Z" fill="#FBBC04"/>
<path d="M18.9399 11.0513C19.8584 11.0363 20.7458 11.3835 21.4105 12.0179L23.2487 10.1786C22.0831 9.08316 20.5389 8.48174 18.9399 8.50042C17.7461 8.50048 16.5758 8.83253 15.5597 9.45951C14.5436 10.0865 13.7216 10.9837 13.1855 12.051L15.3243 13.7113C15.8342 12.1844 17.26 11.0513 18.9399 11.0513Z" fill="#EA4335"/>
</svg>
