<svg width="86" height="54" viewBox="0 0 66 34" fill="none" xmlns="http://www.w3.org/2000/svg">
<path d="M4.55556 1H61.4444C63.4051 1 65 2.62065 65 4.6129V29.3871C65 31.3794 63.4051 33 61.4444 33H4.55556C2.59492 33 1 31.3794 1 29.3871V4.6129C1 2.62065 2.59492 1 4.55556 1Z" fill="none" stroke="none"/>
<path d="M12.7237 11.7753C12.838 10.7641 13.6934 10 14.711 10H60.7612C61.9548 10 62.8826 11.0387 62.7485 12.2247L61.627 22.1423C61.5127 23.1534 60.6573 23.9175 59.6397 23.9175H13.5895C12.3959 23.9175 11.468 22.8788 11.6022 21.6928L12.7237 11.7753Z" fill="#0A0937"/>
<path d="M18.2305 13.7109V14.8475H19.0886V19.0692H17.8455V20.2058H20.5078V14.8475H21.531C22.5321 14.8475 22.9391 15.2697 22.9391 16.6011V20.2058H24.4353V16.4712C24.4353 14.4254 23.6652 13.7109 21.85 13.7109H18.2305Z" fill="white"/>
<path d="M27.4024 13.7109H25.9172V17.4996H27.4024V13.7109Z" fill="white"/>
<path d="M29.6731 20.2058C30.9933 20.2058 31.4114 19.7403 31.4114 18.3115V13.7109H28.859V14.8475H29.9152V18.1274C29.9152 18.8202 29.7391 19.0692 29.1011 19.0692H28.364V20.2058H29.6731Z" fill="white"/>
<path d="M34.6148 13.7109H33.1296V20.2058H34.6148V13.7109Z" fill="white"/>
<path d="M40.8754 13.7109H36.1008V14.8475H39.3792V19.0692H36.1008V20.2058H41.7115V19.0692H40.8754V13.7109Z" fill="white"/>
<path d="M48.4928 13.7109V16.9151C48.4928 18.6037 47.9207 19.0692 46.3915 19.0692H44.5652L43.9932 13.7109H42.541L43.2561 20.2058H46.6555C48.9218 20.2058 49.923 19.3939 49.923 17.0666V13.7109H48.4928ZM47.0736 17.846V13.7109H45.6654V17.846H47.0736Z" fill="white"/>
<path d="M51.6793 13.7109V20.2058H53.1645V14.8475H54.6387C55.6069 14.8475 55.9479 15.1939 55.9479 16.4929V20.2058H57.4331V16.4712C57.4331 14.3712 56.74 13.7109 55.0568 13.7109H51.6793Z" fill="white"/>
<path d="M13.8551 15.2422L10.5568 15.4132L10.8972 12.1312C10.9458 11.6344 10.5487 11.211 10.0463 11.2354C9.56813 11.2598 9.04139 11.2924 8.57947 11.3168C8.18238 11.3413 7.85823 11.6507 7.81771 12.0498L7.45304 15.5924L3.90356 15.7797C3.50647 15.8041 3.18233 16.1136 3.14181 16.5045C3.10129 16.9117 3.05266 17.4003 3.00404 17.8238C2.95541 18.3206 3.3525 18.7441 3.85494 18.7196L7.1532 18.5486L6.81283 21.8306C6.76421 22.3274 7.1613 22.7509 7.66373 22.7264C8.14186 22.702 8.66861 22.6694 9.13052 22.645C9.52761 22.6206 9.85177 22.3111 9.89229 21.912L10.257 18.3776L13.8064 18.1903C14.2035 18.1658 14.5277 17.8564 14.5682 17.4655C14.6087 17.0583 14.6573 16.5696 14.706 16.1462C14.7546 15.6412 14.3494 15.2178 13.8551 15.2422Z" fill="#34AA53"/>
</svg>
