<svg width="14" height="16" viewBox="0 0 14 16" fill="none" xmlns="http://www.w3.org/2000/svg">
<path d="M3.66667 7.33398V4.66732C3.66667 3.78326 4.01786 2.93542 4.64298 2.3103C5.2681 1.68517 6.11595 1.33398 7 1.33398C7.88406 1.33398 8.7319 1.68517 9.35702 2.3103C9.98214 2.93542 10.3333 3.78326 10.3333 4.66732V7.33398M2.33333 7.33398H11.6667C12.403 7.33398 13 7.93094 13 8.66732V13.334C13 14.0704 12.403 14.6673 11.6667 14.6673H2.33333C1.59695 14.6673 1 14.0704 1 13.334V8.66732C1 7.93094 1.59695 7.33398 2.33333 7.33398Z" stroke="#A2ADB5" stroke-width="1.5" stroke-linecap="round" stroke-linejoin="round"/>
</svg>
