<svg width="20" height="20" viewBox="0 0 20 20" fill="none" xmlns="http://www.w3.org/2000/svg">
<path d="M12.1016 3.26502L12.8963 2.84257L12.1016 3.26502ZM15.9618 3.23483L15.3254 3.87123L15.9618 3.23483ZM15.5209 2.8434L15.9682 2.06242L15.5209 2.8434ZM14.6158 2.79826L14.2484 1.97665L14.6158 2.79826ZM17.2025 5.3853L16.381 5.01774L17.2025 5.3853ZM16.7662 4.03922L17.4026 3.40283L16.7662 4.03922ZM17.1573 4.4797L16.3765 4.92718L17.1573 4.4797ZM16.7367 7.89875L17.1589 7.10391L16.7367 7.89875ZM16.2496 6.72278L15.3891 6.45926L16.2496 6.72278ZM18.9651 8.84294L19.8336 8.6071L18.9651 8.84294ZM18.3568 8.1708L18.6779 7.33002L18.3568 8.1708ZM18.357 11.8291L18.0357 10.9884L18.357 11.8291ZM18.965 11.1573L19.8335 11.3934L18.965 11.1573ZM16.2485 13.2768L15.3878 13.5398L16.2485 13.2768ZM16.7352 12.1016L17.1578 12.8962L16.7352 12.1016ZM17.1576 15.5213L17.9386 15.9684L17.1576 15.5213ZM17.2027 14.6165L16.381 14.9837L17.2027 14.6165ZM14.6159 17.2031L14.9832 16.3815L14.6159 17.2031ZM15.5209 17.158L15.0737 16.377L15.5209 17.158ZM12.1014 16.7363L12.8961 17.1587L12.1014 16.7363ZM13.277 16.2493L13.5403 15.3887L13.277 16.2493ZM11.1571 18.965L10.9212 18.0965L11.1571 18.965ZM11.8292 18.3568L12.6699 18.678L11.8292 18.3568ZM8.17078 18.3567L9.01157 18.0357L8.17078 18.3567ZM8.84298 18.9651L8.60718 19.8336L8.84298 18.9651ZM6.7229 16.2497L6.45946 15.3892L6.7229 16.2497ZM7.89872 16.7368L8.69352 16.3145L7.89872 16.7368ZM4.03802 16.7669L3.40163 17.4033L4.03802 16.7669ZM4.47906 17.1584L4.03183 17.9394L4.47906 17.1584ZM5.38409 17.2035L5.75138 18.0252L5.38409 17.2035ZM2.79721 14.617L1.97548 14.2499L2.79721 14.617ZM3.23419 15.963L3.87059 15.3266L3.23419 15.963ZM2.84232 15.5216L2.0612 15.9686L2.84232 15.5216ZM3.26514 12.1017L3.68782 11.3071L3.26514 12.1017ZM3.75185 13.2767L2.89112 13.0138L3.75185 13.2767ZM1.03503 11.1574L1.9035 10.9212L1.03503 11.1574ZM1.64291 11.8291L1.32153 12.6697L1.64291 11.8291ZM1.64316 8.17082L1.96432 9.01157L1.64316 8.17082ZM1.03496 8.84287L1.9035 9.07878L1.03496 8.84287ZM3.75072 6.72294L2.89011 6.9863L3.75072 6.72294ZM3.26373 7.89863L2.84141 7.10387L3.26373 7.89863ZM3.23386 4.0387L3.87025 4.6751L3.23386 4.0387ZM2.84258 4.4794L2.06165 4.03203L2.84258 4.4794ZM2.79742 5.38477L3.619 5.01732L2.79742 5.38477ZM5.38418 2.79784L5.75152 1.97622L5.38418 2.79784ZM4.47905 2.84298L4.03178 2.06199L4.47905 2.84298ZM7.89846 3.26469L7.10378 2.84222L7.89846 3.26469ZM6.72305 3.75157L6.98624 2.89091L6.72305 3.75157ZM11.1574 1.03504L10.9213 1.9035L11.1574 1.03504ZM11.8291 1.64287L12.6697 1.32146L11.8291 1.64287ZM8.84267 1.03502L8.60657 0.166538L8.84267 1.03502ZM8.1709 1.64296L7.33022 1.32162L8.1709 1.64296ZM9.43155 1.9H10.5683V0.1H9.43155V1.9ZM3.87025 4.6751L4.67451 3.87084L3.40172 2.59805L2.59746 3.4023L3.87025 4.6751ZM1.9 10.5684V9.43129H0.1V10.5684H1.9ZM4.67442 16.1305L3.87059 15.3266L2.5978 16.5994L3.40163 17.4033L4.67442 16.1305ZM10.5687 18.1H9.43115V19.9H10.5687V18.1ZM16.1295 15.3261L15.3255 16.1301L16.5983 17.4029L17.4023 16.5989L16.1295 15.3261ZM18.1 9.4312V10.5685H19.9V9.4312H18.1ZM15.3254 3.87123L16.1298 4.67562L17.4026 3.40283L16.5982 2.59844L15.3254 3.87123ZM13.5682 2.44731C13.3357 2.63752 13.1903 2.75607 13.0797 2.83673C12.9633 2.92159 12.9594 2.90792 13.0138 2.89126L13.5402 4.61256C13.783 4.53831 13.9853 4.40409 14.1403 4.29107C14.301 4.17385 14.492 4.01718 14.708 3.84044L13.5682 2.44731ZM11.027 2.31532C11.0548 2.59319 11.0791 2.8391 11.1099 3.0357C11.1395 3.22521 11.1877 3.46325 11.3069 3.68746L12.8963 2.84257C12.923 2.89288 12.9105 2.89974 12.8882 2.75733C12.867 2.622 12.848 2.43523 12.8181 2.13621L11.027 2.31532ZM13.0138 2.89126C12.968 2.90527 12.9187 2.88485 12.8963 2.84257L11.3069 3.68746C11.7339 4.49073 12.6703 4.87862 13.5402 4.61256L13.0138 2.89126ZM16.5982 2.59844C16.4217 2.4219 16.2141 2.20325 15.9682 2.06242L15.0736 3.62438C15.0515 3.61172 15.0528 3.6074 15.0978 3.64837C15.1471 3.69326 15.2111 3.75693 15.3254 3.87123L16.5982 2.59844ZM14.708 3.84044C14.8331 3.73808 14.9031 3.68109 14.9567 3.64133C15.0056 3.60505 15.0064 3.60947 14.9831 3.61987L14.2484 1.97665C13.9897 2.09231 13.7614 2.28922 13.5682 2.44731L14.708 3.84044ZM15.9682 2.06242C15.4416 1.76078 14.8025 1.72891 14.2484 1.97665L14.9831 3.61987C15.0123 3.60683 15.0459 3.60851 15.0736 3.62438L15.9682 2.06242ZM17.5537 6.43242C17.7117 6.23937 17.9084 6.01127 18.024 5.75286L16.381 5.01774C16.3914 4.99449 16.3958 4.99531 16.3595 5.04414C16.3198 5.09765 16.2629 5.1676 16.1606 5.29259L17.5537 6.43242ZM16.1298 4.67562C16.244 4.78981 16.3076 4.85375 16.3525 4.90304C16.3934 4.94802 16.3891 4.94927 16.3765 4.92718L17.9382 4.03222C17.7974 3.78659 17.579 3.5792 17.4026 3.40283L16.1298 4.67562ZM18.024 5.75286C18.272 5.19855 18.2401 4.5591 17.9382 4.03222L16.3765 4.92718C16.3923 4.95491 16.394 4.98856 16.381 5.01774L18.024 5.75286ZM17.8644 7.18195C17.5657 7.15208 17.3792 7.13309 17.244 7.11194C17.1018 7.08969 17.1086 7.07722 17.1589 7.10391L16.3146 8.6936C16.5386 8.81259 16.7764 8.86067 16.9657 8.8903C17.1621 8.92103 17.4077 8.94526 17.6853 8.97302L17.8644 7.18195ZM16.1606 5.29259C15.984 5.50842 15.8275 5.6992 15.7104 5.85978C15.5974 6.01461 15.4633 6.21672 15.3891 6.45926L17.1102 6.98631C17.0935 7.0407 17.0799 7.03673 17.1647 6.92047C17.2452 6.80997 17.3637 6.66468 17.5537 6.43242L16.1606 5.29259ZM17.1589 7.10391C17.1166 7.08144 17.0961 7.03212 17.1102 6.98631L15.3891 6.45926C15.1225 7.32958 15.5107 8.26664 16.3146 8.6936L17.1589 7.10391ZM19.9 9.4312C19.9 9.18166 19.9078 8.88042 19.8336 8.6071L18.0965 9.07878C18.0898 9.0542 18.0938 9.05204 18.0966 9.11281C18.0998 9.17941 18.1 9.26964 18.1 9.4312H19.9ZM17.6853 8.97302C17.8461 8.98909 17.9358 8.99831 18.0018 9.00806C18.062 9.01696 18.0595 9.02066 18.0357 9.01157L18.6779 7.33002C18.4133 7.22898 18.1127 7.20678 17.8644 7.18195L17.6853 8.97302ZM19.8336 8.6071C19.6745 8.02121 19.245 7.54662 18.6779 7.33002L18.0357 9.01157C18.0655 9.02297 18.0881 9.04795 18.0965 9.07878L19.8336 8.6071ZM17.8641 12.8181C18.1127 12.7932 18.4135 12.771 18.6783 12.6698L18.0357 10.9884C18.0595 10.9793 18.0621 10.983 18.0018 10.9919C17.9358 11.0017 17.846 11.0109 17.685 11.027L17.8641 12.8181ZM18.1 10.5685C18.1 10.7302 18.0998 10.8205 18.0966 10.8872C18.0938 10.948 18.0898 10.9459 18.0965 10.9212L19.8335 11.3934C19.9078 11.1198 19.9 10.8183 19.9 10.5685H18.1ZM18.6783 12.6698C19.2451 12.4532 19.6743 11.9789 19.8335 11.3934L18.0965 10.9212C18.0881 10.9521 18.0655 10.977 18.0357 10.9884L18.6783 12.6698ZM17.5534 13.5685C17.3631 13.3359 17.2444 13.1904 17.1637 13.0797C17.0788 12.9632 17.0925 12.9593 17.1092 13.0137L15.3878 13.5398C15.462 13.7828 15.5963 13.9852 15.7094 14.1403C15.8267 14.3011 15.9834 14.4922 16.1603 14.7083L17.5534 13.5685ZM17.685 11.027C17.4072 11.0548 17.1612 11.0791 16.9646 11.1098C16.775 11.1395 16.5369 11.1877 16.3126 11.307L17.1578 12.8962C17.1075 12.923 17.1007 12.9105 17.243 12.8882C17.3784 12.867 17.5651 12.848 17.8641 12.8181L17.685 11.027ZM17.1092 13.0137C17.0952 12.968 17.1156 12.9187 17.1578 12.8962L16.3126 11.307C15.5097 11.734 15.122 12.6701 15.3878 13.5398L17.1092 13.0137ZM17.4023 16.5989C17.5789 16.4222 17.7978 16.2145 17.9386 15.9684L16.3765 15.0741C16.3892 15.052 16.3935 15.0533 16.3525 15.0983C16.3076 15.1477 16.2439 15.2117 16.1295 15.3261L17.4023 16.5989ZM16.1603 14.7083C16.2627 14.8335 16.3198 14.9036 16.3595 14.9572C16.3959 15.0061 16.3914 15.007 16.381 14.9837L18.0244 14.2493C17.9087 13.9904 17.7116 13.7619 17.5534 13.5685L16.1603 14.7083ZM17.9386 15.9684C18.2401 15.4419 18.2719 14.8031 18.0244 14.2493L16.381 14.9837C16.3941 15.0128 16.3924 15.0464 16.3765 15.0741L17.9386 15.9684ZM13.5681 17.5539C13.7614 17.7121 13.9898 17.9091 14.2485 18.0248L14.9832 16.3815C15.0065 16.3919 15.0056 16.3963 14.9567 16.36C14.9031 16.3202 14.8331 16.2632 14.7079 16.1608L13.5681 17.5539ZM15.3255 16.1301C15.2112 16.2444 15.1472 16.3081 15.0978 16.353C15.0528 16.394 15.0516 16.3896 15.0737 16.377L15.9682 17.939C16.2141 17.7981 16.4217 17.5794 16.5983 17.4029L15.3255 16.1301ZM14.2485 18.0248C14.8026 18.2724 15.4416 18.2406 15.9682 17.939L15.0737 16.377C15.046 16.3928 15.0123 16.3945 14.9832 16.3815L14.2485 18.0248ZM12.818 17.8644C12.8479 17.5656 12.8669 17.379 12.8881 17.2438C12.9104 17.1015 12.9228 17.1084 12.8961 17.1587L11.3066 16.314C11.1875 16.5381 11.1394 16.776 11.1097 16.9654C11.079 17.1619 11.0547 17.4076 11.027 17.6853L12.818 17.8644ZM14.7079 16.1608C14.4919 15.9841 14.301 15.8274 14.1403 15.7102C13.9853 15.5972 13.783 15.463 13.5403 15.3887L13.0137 17.11C12.9592 17.0933 12.9632 17.0796 13.0796 17.1645C13.1902 17.2452 13.3356 17.3637 13.5681 17.5539L14.7079 16.1608ZM12.8961 17.1587C12.9186 17.1164 12.9679 17.096 13.0137 17.11L13.5403 15.3887C12.6703 15.1225 11.7336 15.5105 11.3066 16.314L12.8961 17.1587ZM10.5687 19.9C10.8183 19.9 11.1196 19.9078 11.393 19.8336L10.9212 18.0965C10.9458 18.0898 10.948 18.0938 10.8872 18.0966C10.8206 18.0998 10.7303 18.1 10.5687 18.1V19.9ZM11.027 17.6853C11.0109 17.8461 11.0017 17.9359 10.9919 18.0018C10.983 18.062 10.9793 18.0595 10.9884 18.0357L12.6699 18.678C12.771 18.4133 12.7932 18.1127 12.818 17.8644L11.027 17.6853ZM11.393 19.8336C11.9788 19.6745 12.4533 19.245 12.6699 18.678L10.9884 18.0357C10.977 18.0655 10.9521 18.0881 10.9212 18.0965L11.393 19.8336ZM7.18196 17.8645C7.20679 18.1128 7.22898 18.4132 7.33 18.6778L9.01157 18.0357C9.02065 18.0595 9.01695 18.062 9.00806 18.0018C8.99831 17.9359 8.9891 17.8461 8.97303 17.6854L7.18196 17.8645ZM9.43115 18.1C9.26962 18.1 9.1794 18.0998 9.11281 18.0966C9.05205 18.0938 9.0542 18.0898 9.07879 18.0965L8.60718 19.8336C8.88046 19.9078 9.18165 19.9 9.43115 19.9V18.1ZM7.33 18.6778C7.54659 19.245 8.02123 19.6745 8.60718 19.8336L9.07879 18.0965C9.04795 18.0881 9.02297 18.0655 9.01157 18.0357L7.33 18.6778ZM6.43197 17.5543C6.6644 17.3641 6.80981 17.2455 6.92041 17.1649C7.0368 17.08 7.04078 17.0937 6.98634 17.1103L6.45946 15.3892C6.21682 15.4634 6.01459 15.5976 5.85971 15.7106C5.69904 15.8278 5.50814 15.9844 5.29214 16.1611L6.43197 17.5543ZM8.97303 17.6854C8.94527 17.4079 8.92104 17.1622 8.8903 16.9658C8.86066 16.7764 8.81256 16.5386 8.69352 16.3145L7.10392 17.159C7.07722 17.1088 7.08969 17.1019 7.11195 17.2441C7.13311 17.3793 7.15209 17.5658 7.18196 17.8645L8.97303 17.6854ZM6.98634 17.1103C7.03214 17.0963 7.08145 17.1167 7.10392 17.159L8.69352 16.3145C8.26656 15.5108 7.32966 15.1228 6.45946 15.3892L6.98634 17.1103ZM3.40163 17.4033C3.57822 17.5799 3.78586 17.7986 4.03183 17.9394L4.92629 16.3774C4.94841 16.3901 4.94715 16.3944 4.90212 16.3534C4.85277 16.3085 4.78875 16.2448 4.67442 16.1305L3.40163 17.4033ZM5.29214 16.1611C5.16695 16.2636 5.09686 16.3206 5.04325 16.3604C4.99432 16.3967 4.99349 16.3923 5.01679 16.3819L5.75138 18.0252C6.01016 17.9095 6.2386 17.7125 6.43197 17.5543L5.29214 16.1611ZM4.03183 17.9394C4.55843 18.241 5.19739 18.2728 5.75138 18.0252L5.01679 16.3819C4.98763 16.3949 4.954 16.3933 4.92629 16.3774L4.03183 17.9394ZM2.4467 13.5687C2.28839 13.7622 2.0912 13.9908 1.97548 14.2499L3.61894 14.9841C3.60852 15.0074 3.60409 15.0066 3.64043 14.9576C3.68025 14.904 3.73733 14.8338 3.83983 14.7086L2.4467 13.5687ZM3.87059 15.3266C3.75616 15.2122 3.6924 15.1481 3.64746 15.0987C3.60645 15.0537 3.61077 15.0524 3.62345 15.0745L2.0612 15.9686C2.20212 16.2149 2.42105 16.4227 2.5978 16.5994L3.87059 15.3266ZM1.97548 14.2499C1.7281 14.8036 1.75995 15.4422 2.0612 15.9686L3.62345 15.0745C3.60759 15.0468 3.60592 15.0132 3.61894 14.9841L1.97548 14.2499ZM2.13595 12.8181C2.43507 12.848 2.62187 12.867 2.75723 12.8882C2.89962 12.9105 2.89275 12.923 2.84245 12.8962L3.68782 11.3071C3.4635 11.1878 3.22535 11.1396 3.03571 11.1099C2.83902 11.0791 2.59301 11.0548 2.31506 11.027L2.13595 12.8181ZM3.83983 14.7086C4.01676 14.4923 4.17358 14.3012 4.29089 14.1403C4.404 13.9852 4.53833 13.7827 4.61258 13.5397L2.89112 13.0138C2.90777 12.9592 2.92148 12.9632 2.83652 13.0797C2.75578 13.1905 2.6371 13.336 2.4467 13.5687L3.83983 14.7086ZM2.84245 12.8962C2.8847 12.9187 2.9051 12.968 2.89112 13.0138L4.61258 13.5397C4.87824 12.6701 4.49057 11.7342 3.68782 11.3071L2.84245 12.8962ZM0.1 10.5684C0.1 10.8182 0.0921578 11.1199 0.166564 11.3935L1.9035 10.9212C1.9102 10.9459 1.90625 10.948 1.90338 10.8872C1.90023 10.8205 1.9 10.7301 1.9 10.5684H0.1ZM2.31506 11.027C2.1541 11.0109 2.06422 11.0017 1.99818 10.9919C1.93792 10.983 1.94046 10.9793 1.96429 10.9884L1.32153 12.6697C1.58642 12.771 1.88733 12.7932 2.13595 12.8181L2.31506 11.027ZM0.166564 11.3935C0.325733 11.9789 0.754876 12.4531 1.32153 12.6697L1.96429 10.9884C1.93447 10.977 1.91188 10.9521 1.9035 10.9212L0.166564 11.3935ZM2.13567 7.18194C1.88728 7.20678 1.58665 7.22898 1.322 7.33007L1.96432 9.01157C1.9405 9.02067 1.93796 9.01696 1.99818 9.00806C2.06416 8.9983 2.15396 8.98909 2.31478 8.97301L2.13567 7.18194ZM1.9 9.43129C1.9 9.26969 1.90023 9.17943 1.90337 9.11281C1.90624 9.05202 1.91018 9.05418 1.9035 9.07878L0.166432 8.60696C0.0921733 8.88036 0.1 9.18168 0.1 9.43129H1.9ZM1.322 7.33007C0.754957 7.54668 0.32554 8.02118 0.166432 8.60696L1.9035 9.07878C1.91187 9.04794 1.93447 9.02297 1.96432 9.01157L1.322 7.33007ZM2.44635 6.43214C2.63647 6.66451 2.75497 6.80987 2.8356 6.92043C2.92043 7.03674 2.90677 7.04072 2.89011 6.9863L4.61132 6.45958C4.53706 6.21691 4.40289 6.01468 4.28992 5.85978C4.17275 5.69912 4.01614 5.50824 3.83947 5.29231L2.44635 6.43214ZM2.31478 8.97301C2.59243 8.94525 2.83816 8.92101 3.03463 8.89025C3.22405 8.8606 3.46193 8.81248 3.68604 8.6934L2.84141 7.10387C2.89168 7.07716 2.89853 7.08964 2.75627 7.11191C2.62106 7.13307 2.43446 7.15206 2.13567 7.18194L2.31478 8.97301ZM2.89011 6.9863C2.90413 7.0321 2.88371 7.0814 2.84141 7.10387L3.68604 8.6934C4.48958 8.26642 4.87759 7.32968 4.61132 6.45958L2.89011 6.9863ZM2.59746 3.4023C2.421 3.57877 2.20244 3.78626 2.06165 4.03203L3.62351 4.92678C3.61085 4.94889 3.60654 4.94763 3.64749 4.90263C3.69236 4.85332 3.75601 4.78934 3.87025 4.6751L2.59746 3.4023ZM3.83947 5.29231C3.73716 5.16726 3.68019 5.09727 3.64045 5.04373C3.60418 4.99488 3.60859 4.99406 3.619 5.01732L1.97585 5.75222C2.09149 6.01078 2.28832 6.23899 2.44635 6.43214L3.83947 5.29231ZM2.06165 4.03203C1.75988 4.55879 1.72799 5.19804 1.97585 5.75222L3.619 5.01732C3.60595 4.98815 3.60763 4.95451 3.62351 4.92678L2.06165 4.03203ZM6.43179 2.44692C6.23855 2.28881 6.01023 2.09189 5.75152 1.97622L5.01684 3.61946C4.99357 3.60906 4.99439 3.60464 5.04326 3.64092C5.09683 3.68069 5.16685 3.73768 5.29196 3.84005L6.43179 2.44692ZM4.67451 3.87084C4.78881 3.75654 4.85282 3.69286 4.90216 3.64796C4.94719 3.60699 4.94844 3.61131 4.92632 3.62398L4.03178 2.06199C3.78586 2.20283 3.57827 2.4215 3.40172 2.59805L4.67451 3.87084ZM5.75152 1.97622C5.19747 1.72851 4.55843 1.76038 4.03178 2.06199L4.92632 3.62398C4.95404 3.6081 4.98768 3.60642 5.01684 3.61946L5.75152 1.97622ZM7.18191 2.136C7.15201 2.43498 7.13301 2.62171 7.11182 2.75701C7.08954 2.89938 7.07704 2.89252 7.10378 2.84222L8.69315 3.68717C8.81234 3.46295 8.8605 3.22493 8.89017 3.03541C8.92094 2.83882 8.9452 2.59294 8.97298 2.3151L7.18191 2.136ZM5.29196 3.84005C5.50801 4.01681 5.69898 4.17349 5.85973 4.29072C6.01471 4.40374 6.21705 4.53797 6.45986 4.61222L6.98624 2.89091C7.04069 2.90756 7.03671 2.92124 6.92034 2.83638C6.80972 2.75571 6.66429 2.63715 6.43179 2.44692L5.29196 3.84005ZM7.10378 2.84222C7.08131 2.8845 7.03202 2.90491 6.98624 2.89091L6.45986 4.61222C7.32975 4.87824 8.26614 4.49037 8.69315 3.68717L7.10378 2.84222ZM10.5683 1.9C10.7301 1.9 10.8205 1.90023 10.8872 1.90338C10.948 1.90625 10.9459 1.9102 10.9213 1.9035L11.3936 0.166584C11.1199 0.0921554 10.8182 0.1 10.5683 0.1V1.9ZM12.8181 2.13621C12.7932 1.88745 12.771 1.58639 12.6697 1.32146L10.9884 1.96429C10.9793 1.94043 10.983 1.93789 10.9919 1.99822C11.0017 2.06431 11.0109 2.15426 11.027 2.31532L12.8181 2.13621ZM10.9213 1.9035C10.9521 1.91188 10.977 1.93447 10.9884 1.96429L12.6697 1.32146C12.4531 0.754863 11.9789 0.325763 11.3936 0.166584L10.9213 1.9035ZM9.43155 0.1C9.18174 0.1 8.88018 0.0921609 8.60657 0.166538L9.07876 1.9035C9.05415 1.91019 9.05198 1.90625 9.11282 1.90338C9.17949 1.90023 9.26982 1.9 9.43155 1.9V0.1ZM8.97298 2.3151C8.98908 2.15414 8.9983 2.06424 9.00806 1.9982C9.01698 1.93792 9.02069 1.94046 9.01158 1.9643L7.33022 1.32162C7.22899 1.58647 7.20677 1.88737 7.18191 2.136L8.97298 2.3151ZM8.60657 0.166538C8.0211 0.325695 7.54684 0.754892 7.33022 1.32162L9.01158 1.9643C9.02298 1.93447 9.04794 1.91188 9.07876 1.9035L8.60657 0.166538Z" fill="#34AA54"/>
<circle cx="9.9998" cy="10.0008" r="2.7" stroke="#34AA54" stroke-width="1.8"/>
</svg>
