<svg width="58" height="52" viewBox="0 0 58 52" fill="none" xmlns="http://www.w3.org/2000/svg">
<g clip-path="url(#clip0)">
<path d="M19.7092 31.2617L20.6122 23.8817H22.4578C24.8712 23.8817 26.8926 22.3966 28.3734 21.2472C29.3313 20.5036 29.9862 19.3884 30.4016 18.1872C30.8203 16.9765 31.022 15.6056 31.022 14.254C31.022 11.6724 30.4274 9.37607 28.8113 8.22408C27.5437 7.31311 25.9125 6.43217 23.9405 6.43217H16.4518H15.5633L15.4587 7.31444L14.1728 18.1614H14.1459L14.0576 19.0641L12.8768 31.1419L12.8765 31.1445L11.0171 49.6596L11.0171 49.6596L11.0162 49.6692C10.9935 49.9199 10.9218 50.0798 10.8301 50.1979C10.7337 50.3219 10.5689 50.4584 10.2747 50.585C9.65259 50.8526 8.63556 51 7.10341 51H4.44801C2.90321 51 1.96453 50.9798 1.39461 50.8119C1.14315 50.7378 1.07978 50.6649 1.06683 50.6483L1.0668 50.6482C1.05864 50.6378 1.00695 50.5714 1.00063 50.3418L6.13764 2.15425L6.13765 2.15425L6.13821 2.14874C6.18241 1.71113 6.26812 1.47986 6.33886 1.35916C6.3957 1.26217 6.4576 1.20837 6.56391 1.16143C6.69761 1.1024 6.91076 1.05239 7.26846 1.02572C7.61404 0.99996 8.01643 0.999983 8.52551 1.00001L8.5777 1.00001H25.4986C28.309 1.00001 30.7048 1.05406 32.7545 1.40764C34.7877 1.7584 36.4112 2.39356 37.7127 3.50836C38.8253 4.47187 39.6437 5.21157 40.3291 6.79318C41.0451 8.44507 41.4194 10.1035 41.4194 12.8412C41.4194 15.5637 40.908 18.1487 39.8974 20.5634C38.8569 23.0295 37.67 24.8701 36.3548 26.0846L36.3504 26.0887C34.9808 27.3687 33.3625 28.4628 31.5038 29.2409L31.5038 29.2409L31.4985 29.2432C28.5153 30.5122 25.5853 31.2617 22.6924 31.2617H19.7092Z" fill="white" stroke="#444444" stroke-width="2"/>
<path d="M56.8547 41.236C56.7282 41.3253 56.5691 41.3823 56.3586 41.3929C56.3585 41.3929 56.3583 41.3929 56.3581 41.393L49.0796 41.744L48.63 41.7657L48.6045 42.2152L48.1941 49.4634L48.194 49.4654C48.1774 49.7786 48.0494 49.9993 47.7769 50.1715C47.4745 50.3627 46.974 50.503 46.2153 50.5389L46.2137 50.539L45.5527 50.5724C45.5526 50.5724 45.5525 50.5724 45.5523 50.5724C45.1446 50.5923 44.816 50.5813 44.5612 50.5453C44.3009 50.5086 44.1496 50.4502 44.0707 50.3998C43.9224 50.3049 43.798 50.1343 43.7743 49.7512L44.1832 42.5309L44.2146 41.9767L43.6602 42.0032L36.4814 42.346L36.4793 42.3461C36.1974 42.3607 36.0534 42.2822 35.9587 42.1699C35.8429 42.0325 35.733 41.763 35.7062 41.2734C35.6532 40.1466 35.7617 39.3678 35.9785 38.883C36.0836 38.6478 36.207 38.4982 36.3349 38.4046C36.4599 38.3132 36.616 38.2555 36.8228 38.2451C36.823 38.2451 36.8231 38.2451 36.8233 38.2451L44.001 37.9024L44.4513 37.8809L44.4764 37.4308L44.8869 30.0823L44.887 30.0807C44.9035 29.7675 45.0316 29.5467 45.304 29.3745C45.6064 29.1834 46.1069 29.0431 46.8656 29.0072L46.8673 29.0071L47.5282 28.9737C47.5283 28.9737 47.5285 28.9737 47.5286 28.9737C47.9363 28.9538 48.2649 28.9648 48.5198 29.0008C48.78 29.0375 48.9313 29.0958 49.0102 29.1463C49.1585 29.2412 49.2829 29.4118 49.3066 29.795L48.8977 37.1159L48.8667 37.67L49.421 37.6432L56.692 37.2921L56.6933 37.292C56.9738 37.2777 57.1223 37.3594 57.224 37.4864C57.3484 37.6419 57.4604 37.9399 57.4835 38.4617L57.4836 38.4638C57.5367 39.5608 57.426 40.312 57.2102 40.7767C57.1057 41.0015 56.9832 41.1452 56.8547 41.236Z" fill="#34AA54" stroke="black"/>
</g>
<defs>
<clipPath id="clip0">
<rect width="58" height="52" fill="white"/>
</clipPath>
</defs>
</svg>
