<svg width="65" height="33" viewBox="0 0 65 33" fill="none" xmlns="http://www.w3.org/2000/svg">
<path d="M4.5 1H60.5C62.43 1 64 2.57 64 4.5V28.5C64 30.43 62.43 32 60.5 32H4.5C2.57 32 1 30.43 1 28.5V4.5C1 2.57 2.57 1 4.5 1Z" fill="white" stroke="#E3E6E9"/>
<path fill-rule="evenodd" clip-rule="evenodd" d="M27.3664 13.4508C28.4135 13.4508 29.3796 14.0188 29.2474 15.4343C29.0904 17.1126 28.186 18.0475 26.7632 18.0515H25.5223C25.3437 18.0515 25.2571 18.1973 25.2107 18.4961L24.9711 20.0238C24.9351 20.2546 24.8165 20.3683 24.6419 20.3683H23.4859C23.3017 20.3683 23.2376 20.2505 23.2784 19.987L24.2341 13.8626C24.2814 13.5614 24.396 13.4492 24.6002 13.4492H27.3672L27.3664 13.4508ZM25.4838 16.7289H26.4251C27.0139 16.7065 27.4049 16.2995 27.4441 15.5633C27.4682 15.1091 27.1613 14.7838 26.6735 14.7863L25.7875 14.7903L25.4838 16.7289ZM32.3901 19.8997C32.4959 19.8035 32.6032 19.7539 32.588 19.8724L32.5503 20.156C32.5311 20.3042 32.5896 20.3827 32.7274 20.3827H33.7544C33.9274 20.3827 34.0115 20.313 34.054 20.0455L34.6869 16.0736C34.7189 15.8741 34.67 15.7764 34.5186 15.7764H33.3899C33.2881 15.7764 33.2385 15.8333 33.212 15.9887L33.1704 16.233C33.1488 16.3604 33.0903 16.3828 33.0358 16.2547C32.8443 15.8012 32.3557 15.5978 31.6699 15.6114C30.0862 15.6442 29.0183 16.8467 28.9037 18.388C28.8156 19.58 29.6696 20.5165 30.7959 20.5165C31.613 20.5165 31.9784 20.273 32.3901 19.8997V19.8997ZM31.5305 19.2892C30.8488 19.2892 30.3737 18.7453 30.4723 18.0788C30.5716 17.4123 31.2085 16.8683 31.8902 16.8683C32.572 16.8683 33.047 17.4123 32.9485 18.0788C32.8491 18.7453 32.2123 19.2892 31.5305 19.2892ZM36.6976 15.7628H35.6602C35.4455 15.7628 35.3582 15.9198 35.4263 16.1201L36.7193 19.9061L35.4455 21.7069C35.339 21.8575 35.4215 21.9945 35.5713 21.9945H36.7417C36.9163 21.9945 37.0012 21.9497 37.0894 21.8239L41.066 16.1201C41.1886 15.9446 41.1309 15.7604 40.9298 15.7604H39.8235C39.6336 15.7588 39.5575 15.8341 39.4486 15.9927L37.7903 18.3992L37.0525 15.9887C37.0068 15.8405 36.8987 15.7636 36.6992 15.7636L36.6976 15.7628Z" fill="#113984"/>
<path fill-rule="evenodd" clip-rule="evenodd" d="M45.2038 13.4508C46.2509 13.4508 47.217 14.0188 47.0848 15.4343C46.9278 17.1126 46.0234 18.0475 44.6006 18.0515H43.3597C43.1811 18.0515 43.0945 18.1973 43.0481 18.4961L42.8085 20.0238C42.7725 20.2546 42.6539 20.3683 42.4793 20.3683H41.3233C41.1391 20.3683 41.075 20.2505 41.1158 19.987L42.0715 13.8626C42.1188 13.5614 42.2334 13.4492 42.4376 13.4492H45.2046L45.2038 13.4508ZM43.3212 16.7289H44.2625C44.8513 16.7065 45.2423 16.2995 45.2815 15.5633C45.3056 15.1091 44.9987 14.7838 44.5109 14.7863L43.6249 14.7903L43.3212 16.7289ZM50.2275 19.8997C50.3333 19.8035 50.4406 19.7539 50.4254 19.8724L50.3877 20.156C50.3685 20.3042 50.427 20.3827 50.5648 20.3827H51.5918C51.7648 20.3827 51.8489 20.313 51.8914 20.0455L52.5243 16.0736C52.5563 15.8741 52.5074 15.7764 52.356 15.7764H51.2273C51.1255 15.7764 51.0759 15.8333 51.0494 15.9887L51.0078 16.233C50.9862 16.3604 50.9277 16.3828 50.8732 16.2547C50.6817 15.8012 50.1931 15.5978 49.5073 15.6114C47.9236 15.6442 46.8557 16.8467 46.7411 18.388C46.653 19.58 47.507 20.5165 48.6333 20.5165C49.4505 20.5165 49.8158 20.273 50.2275 19.8997V19.8997ZM49.3679 19.2892C48.6862 19.2892 48.2112 18.7453 48.3097 18.0788C48.409 17.4123 49.0459 16.8683 49.7276 16.8683C50.4094 16.8683 50.8844 17.4123 50.7859 18.0788C50.6865 18.7453 50.0497 19.2892 49.3679 19.2892ZM54.1048 20.3899H52.9192C52.8247 20.3899 52.7598 20.3162 52.7742 20.2257L53.8164 13.6279C53.8309 13.5373 53.9198 13.4636 54.0135 13.4636H55.1991C55.2937 13.4636 55.3586 13.5373 55.3441 13.6279L54.3019 20.2257C54.2875 20.3162 54.1994 20.3899 54.1048 20.3899Z" fill="#009EE3"/>
<path fill-rule="evenodd" clip-rule="evenodd" d="M13.8923 13.5867H16.9957C18.662 13.5867 19.2893 14.4303 19.1923 15.6712C19.0329 17.7172 17.7952 18.8492 16.1546 18.8492H15.3262C15.1011 18.8492 14.9497 18.9982 14.8888 19.4019L14.5331 21.7475C14.5099 21.8997 14.4298 21.9895 14.3096 21.9999H12.3638C12.1803 21.9999 12.1154 21.8597 12.1635 21.5561L13.3523 14.0313C13.3996 13.7301 13.5646 13.5859 13.8931 13.5859L13.8923 13.5867Z" fill="#009EE3"/>
<path fill-rule="evenodd" clip-rule="evenodd" d="M11.9515 11H15.0582C15.933 11 16.9712 11.028 17.665 11.6409C18.1288 12.0502 18.3723 12.7015 18.3163 13.4009C18.1256 15.7729 16.7068 17.102 14.8034 17.102H13.2709C13.0098 17.102 12.8375 17.275 12.7638 17.7428L12.3361 20.4626C12.308 20.6388 12.2319 20.743 12.0925 20.7558H10.1795C9.9672 20.7558 9.8919 20.5932 9.94718 20.2415L11.3251 11.5159C11.3803 11.1658 11.5718 11 11.9515 11V11Z" fill="#113984"/>
<path fill-rule="evenodd" clip-rule="evenodd" d="M12.8093 17.4657L13.3517 14.0313C13.3989 13.7301 13.564 13.5859 13.8924 13.5859H16.9959C17.5094 13.5859 17.9251 13.666 18.2504 13.8143C17.9388 15.9259 16.5729 17.0988 14.7848 17.0988H13.2523C13.0505 17.0988 12.8999 17.2021 12.8093 17.4657Z" fill="#172C70"/>
</svg>
