<svg width="20" height="20" viewBox="0 0 20 20" fill="none" xmlns="http://www.w3.org/2000/svg">
<path d="M12.4535 3.83436C11.9251 3.24989 11.1619 2.80078 9.99693 2.80078H6.61645C6.33217 2.80078 6.09115 3.01611 6.06334 3.29911L5.03745 12.9151C5.00346 13.2411 5.25993 13.5241 5.59056 13.5241H6.79876C7.08304 13.5241 7.32406 13.3088 7.35187 13.0258L8.2418 4.69259C8.2418 4.69259 8.2418 4.69259 9.6972 4.71105C10.0247 4.71413 10.3307 4.82179 10.5624 4.9879C10.8065 5.16016 11.097 5.53853 11.1433 6.02148C11.1897 6.49827 11.0012 6.95662 10.6706 7.25192C10.3863 7.50724 10.0155 7.63644 9.37893 7.63644H9.35112C9.06683 7.63644 8.82581 7.85177 8.798 8.13477L8.65586 9.50057L9.42219 9.50364C10.0124 9.50364 10.5191 9.47903 11.1928 9.20526C11.5728 9.03607 11.9406 8.77768 12.2156 8.5039C12.4906 8.22398 12.7409 7.85484 12.951 7.37189C13.1611 6.88894 13.26 6.32294 13.2384 5.76923C13.2075 4.86486 12.7409 4.14504 12.4535 3.83436Z" fill="#F0F6FC"/>
<path d="M18.6826 12.8747L17.4589 12.9385L17.5852 11.7136C17.6032 11.5282 17.4559 11.3702 17.2694 11.3793C17.092 11.3884 16.8966 11.4006 16.7252 11.4097C16.5779 11.4188 16.4576 11.5343 16.4426 11.6832L16.3073 13.0054L14.9903 13.0753C14.8429 13.0844 14.7227 13.1999 14.7076 13.3458C14.6926 13.4977 14.6746 13.6801 14.6565 13.8382C14.6385 14.0236 14.7858 14.1816 14.9722 14.1725L16.196 14.1087L16.0697 15.3335C16.0517 15.5189 16.199 15.677 16.3854 15.6679C16.5628 15.6588 16.7583 15.6466 16.9297 15.6375C17.077 15.6284 17.1973 15.5129 17.2123 15.3639L17.3476 14.0448L18.6646 13.9749C18.8119 13.9658 18.9322 13.8503 18.9472 13.7044C18.9623 13.5525 18.9803 13.3701 18.9984 13.212C19.0164 13.0236 18.8661 12.8655 18.6826 12.8747Z" fill="#F0F6FC"/>
<path d="M1.07302 14.5421C1.0281 14.5001 1.0019 14.4417 1.00002 14.3779C0.998153 14.2483 1.10484 14.1424 1.23773 14.1406C1.27517 14.1406 1.31073 14.1479 1.34255 14.1625C1.41555 14.2008 1.69631 14.3687 1.74123 14.3925C3.44825 15.3068 5.23763 15.8597 7.08877 16.0951C9.86456 16.4473 12.5449 16.159 15.0624 15.0732C15.0998 15.0567 15.1354 15.0567 15.1653 15.064C15.1784 15.0677 15.1896 15.0732 15.2027 15.0805C15.2439 15.106 15.2739 15.1498 15.2757 15.2027C15.2776 15.2757 15.2215 15.3195 15.2027 15.3305C14.104 16.0276 12.7732 16.5459 11.3938 16.8817C10.0143 17.2175 8.58803 17.2905 7.11498 17.1043C6.1604 16.9839 5.19832 16.7193 4.23438 16.3269C2.95037 15.8013 1.46047 14.9034 1.07302 14.5421Z" fill="#F0F6FC"/>
</svg>
