<svg width="64" height="32" viewBox="0 0 64 32" fill="none" xmlns="http://www.w3.org/2000/svg">
<path d="M4 0.5H60C61.933 0.5 63.5 2.067 63.5 4V28C63.5 29.933 61.933 31.5 60 31.5H4C2.067 31.5 0.5 29.933 0.5 28V4C0.5 2.067 2.067 0.5 4 0.5Z" fill="white" stroke="#E3E6E9"/>
<path d="M17.8423 10.8309C17.4262 10.3611 16.8252 10 15.9078 10H13.2458C13.0219 10 12.8321 10.1731 12.8102 10.4006L12.0024 18.1311C11.9756 18.3932 12.1776 18.6208 12.4379 18.6208H13.3894C13.6132 18.6208 13.803 18.4477 13.8249 18.2201L14.5257 11.5209C14.5257 11.5209 14.5257 11.5209 15.6718 11.5357C15.9297 11.5382 16.1706 11.6247 16.3531 11.7583C16.5454 11.8968 16.7741 12.2009 16.8106 12.5892C16.8471 12.9725 16.6986 13.341 16.4383 13.5784C16.2144 13.7836 15.9224 13.8875 15.4212 13.8875H15.3993C15.1754 13.8875 14.9856 14.0606 14.9637 14.2881L14.8518 15.3861L15.4552 15.3886C15.92 15.3886 16.3191 15.3688 16.8495 15.1487C17.1488 15.0127 17.4384 14.805 17.6549 14.5849C17.8715 14.3598 18.0686 14.0631 18.2341 13.6748C18.3995 13.2866 18.4774 12.8315 18.4604 12.3864C18.436 11.6594 18.0686 11.0807 17.8423 10.8309Z" fill="#1D1B36"/>
<path d="M35.9114 10.8309C35.4929 10.3611 34.8943 10 33.977 10H31.3125C31.0886 10 30.8988 10.1731 30.8769 10.4006L30.074 18.1311C30.0472 18.3932 30.2492 18.6208 30.5095 18.6208H31.4609C31.6848 18.6208 31.8746 18.4477 31.8965 18.2201L32.5949 11.5209C32.5949 11.5209 32.5949 11.5209 33.7409 11.5357C33.9989 11.5382 34.2398 11.6247 34.4223 11.7583C34.6145 11.8968 34.8432 12.2009 34.8797 12.5892C34.9162 12.9725 34.7678 13.341 34.5074 13.5784C34.2836 13.7836 33.9916 13.8875 33.4903 13.8875H33.4684C33.2445 13.8875 33.0547 14.0606 33.0328 14.2881L32.9209 15.3861L33.5244 15.3886C33.9891 15.3886 34.3882 15.3688 34.9187 15.1487C35.2179 15.0127 35.5075 14.805 35.7241 14.5849C35.9406 14.3598 36.1377 14.0631 36.3032 13.6748C36.4687 13.2866 36.5465 12.8315 36.5295 12.3864C36.5052 11.6594 36.1377 11.0807 35.9114 10.8309Z" fill="#1D1B36"/>
<path d="M53.7433 18.5914L52.753 18.6433L52.8552 17.6467C52.8698 17.4959 52.7505 17.3673 52.5997 17.3747C52.4561 17.3821 52.2979 17.392 52.1592 17.3994C52.04 17.4068 51.9427 17.5008 51.9305 17.622L51.821 18.6977L50.7552 18.7546C50.636 18.762 50.5387 18.856 50.5265 18.9747C50.5143 19.0984 50.4997 19.2467 50.4851 19.3753C50.4705 19.5262 50.5898 19.6548 50.7406 19.6474L51.731 19.5954L51.6288 20.592C51.6142 20.7429 51.7334 20.8715 51.8843 20.8641C52.0278 20.8566 52.186 20.8467 52.3247 20.8393C52.4439 20.8319 52.5413 20.7379 52.5534 20.6168L52.6629 19.5435L53.7287 19.4866C53.8479 19.4792 53.9453 19.3852 53.9574 19.2665C53.9696 19.1429 53.9842 18.9945 53.9988 18.8659C54.0134 18.7126 53.8917 18.584 53.7433 18.5914Z" fill="#34AA53"/>
<path d="M32.3713 19.3923C32.3129 19.3354 32.2788 19.2563 32.2764 19.1697C32.2739 18.9941 32.4126 18.8507 32.5854 18.8482C32.6341 18.8482 32.6803 18.8581 32.7217 18.8779C32.8166 18.9298 33.1816 19.1574 33.24 19.1895C35.4591 20.4285 37.7854 21.1778 40.1919 21.4968C43.8005 21.9741 47.285 21.5833 50.5577 20.1119C50.6064 20.0897 50.6526 20.0897 50.6916 20.0996C50.7086 20.1045 50.7232 20.1119 50.7402 20.1218C50.7938 20.1564 50.8327 20.2158 50.8351 20.2875C50.8376 20.3864 50.7646 20.4458 50.7402 20.4606C49.3119 21.4053 47.5818 22.1076 45.7885 22.5626C43.9951 23.0177 42.141 23.1166 40.226 22.8643C38.985 22.7011 37.7343 22.3425 36.4811 21.8109C34.8119 21.0986 32.875 19.8819 32.3713 19.3923Z" fill="#34AA53"/>
<path d="M47.4895 18.5714C47.6477 18.6036 47.8302 18.6233 48.0127 18.6233C48.4945 18.6233 48.9568 18.5071 49.278 18.3068C49.8157 17.9705 50.1929 17.4116 50.3097 16.7736C50.3365 16.6301 50.3292 16.4743 50.3243 16.3606C50.3048 15.9624 50.1199 15.5865 50.0226 15.4431C49.879 15.228 49.6405 15.0351 49.2755 14.8422C49.1952 14.8001 49.1149 14.7606 49.0371 14.721C48.8497 14.6295 48.6745 14.5405 48.5188 14.4292C48.2219 14.2066 48.11 13.9544 48.1733 13.6576C48.2341 13.3683 48.5042 13.1902 48.8716 13.1902C48.9227 13.1902 48.9762 13.1927 49.0273 13.2001C49.2171 13.2249 49.4507 13.2941 49.7257 13.4004C49.7719 13.4202 49.823 13.4276 49.8717 13.4276C50.0201 13.4276 50.1564 13.346 50.227 13.215L50.5968 12.5374C50.1394 12.248 49.6235 11.976 48.9762 11.9167C48.8959 11.9092 48.8108 11.9043 48.728 11.9043C48.4093 11.9043 47.801 11.9636 47.3289 12.3568C47.0734 12.5695 46.6378 13.0344 46.577 13.7615C46.5478 14.1225 46.6403 14.632 46.779 14.8521C46.9931 15.1958 47.2583 15.3813 47.7742 15.6731C48.4725 16.0688 48.5699 16.2345 48.6331 16.3433C48.6356 16.3482 48.638 16.3532 48.6404 16.3581C48.7597 16.5584 48.7645 16.8156 48.6526 16.9986C48.531 17.1989 48.3193 17.3003 48.02 17.3003C47.8934 17.3003 47.7547 17.283 47.6039 17.2459C47.4457 17.2088 47.2608 17.1346 47.0515 17.0308C46.9931 17.0011 46.9323 16.9862 46.869 16.9862C46.7206 16.9862 46.5843 17.0678 46.5137 17.1989L46.1317 17.8938C46.2801 18.0026 46.9079 18.4502 47.4895 18.5714Z" fill="#1D1B36"/>
<path d="M24.1565 17.1891C23.9229 17.2015 23.8037 17.0531 23.8037 16.8009C23.811 16.7341 24.1346 13.6281 24.2611 12.399C24.2879 12.1369 24.0859 11.9069 23.8256 11.9069H23.0931C22.879 11.9069 22.699 12.0651 22.6625 12.2753C22.6625 12.2753 22.6114 12.6784 22.6114 12.6908C22.1636 12.2679 21.6964 12.0825 21.183 12.0825C20.4019 12.0825 19.7693 12.4534 19.2704 13.1631C18.7716 13.8729 18.538 14.82 18.538 15.9848C18.538 16.8306 18.7083 17.4661 19.0709 17.9285C19.4237 18.3786 19.8861 18.621 20.4676 18.621C20.801 18.621 21.1465 18.5344 21.4166 18.3687C21.6964 18.1981 21.9154 17.9805 22.0979 17.7109C22.1004 17.7183 22.1028 17.7282 22.1052 17.7357V17.7381C22.3218 18.3143 22.8328 18.616 23.3462 18.616C23.9278 18.616 24.468 18.2327 24.5458 17.7678C24.5653 17.6516 24.6067 17.1693 24.6067 17.1693C24.6067 17.1693 24.2246 17.1867 24.1565 17.1891ZM21.1806 17.2188C20.7426 17.2188 20.1537 16.8231 20.0832 16.0788C20.054 15.7672 20.0491 15.5496 20.0832 15.2849C20.1489 14.7681 20.3508 14.3551 20.492 14.1449C20.6477 13.9149 21.0492 13.5638 21.6015 13.5539C21.8838 13.5489 22.2318 13.6429 22.4921 13.858C22.4264 14.5035 22.3364 15.3814 22.222 16.4769C22.0444 16.9591 21.6259 17.2188 21.1806 17.2188Z" fill="#1D1B36"/>
<path d="M38.628 17.1963C38.3944 17.2087 38.2752 17.0603 38.2752 16.8081C38.2825 16.7413 38.8032 11.7212 38.9297 10.4921C38.9565 10.23 38.7545 10 38.4942 10H37.7618C37.5476 10 37.3676 10.1583 37.3311 10.3685C37.3311 10.3685 36.6108 17.1246 36.6108 17.3076C36.6108 17.3694 36.5987 17.5302 36.6668 17.7429C36.842 18.2919 37.3116 18.6232 37.8153 18.6208C38.3969 18.6183 38.937 18.2375 39.0149 17.7725C39.0344 17.6563 39.0757 17.1741 39.0757 17.1741C39.0757 17.1741 38.6986 17.1914 38.628 17.1963Z" fill="#1D1B36"/>
<path d="M45.1975 17.1988C44.9639 17.2112 44.8447 17.0628 44.8447 16.8106C44.852 16.7438 45.1732 13.6328 45.2997 12.4038C45.3265 12.1416 45.1245 11.9116 44.8641 11.9116H44.1317C43.9176 11.9116 43.7375 12.0699 43.701 12.2801L43.263 16.4965C43.207 16.6696 43.0635 16.9219 42.7885 17.095C42.5257 17.2508 42.1632 17.2755 41.8176 17.1617C41.584 17.0851 41.3212 16.8477 41.3212 16.4149C41.3431 16.1973 41.6108 13.6303 41.7373 12.4038C41.7641 12.1416 41.5621 11.9116 41.3018 11.9116H40.5693C40.3552 11.9116 40.1751 12.0699 40.1386 12.2801C40.1386 12.2801 39.6277 17.1222 39.6277 17.3076C39.6277 17.3645 39.6179 17.503 39.669 17.691C39.9245 18.5392 40.635 18.6134 40.8321 18.6208C41.1387 18.6307 41.6351 18.6084 42.2483 18.3043C42.8031 18.0298 43.1486 17.7379 43.173 17.7107C43.1754 17.7132 43.1997 17.7528 43.2168 17.7825C43.5234 18.3364 43.8932 18.6208 44.3921 18.6208C44.9736 18.6208 45.5138 18.2375 45.5917 17.7726C45.6112 17.6563 45.6525 17.1741 45.6525 17.1741C45.6525 17.1741 45.2681 17.1939 45.1975 17.1988Z" fill="#1D1B36"/>
<path d="M28.8797 11.9091C28.7069 11.9091 28.5512 12.0129 28.4806 12.1712C28.4806 12.1712 27.6363 14.016 27.4075 14.6565C27.354 14.8098 27.2494 15.072 27.1812 15.344C27.1691 15.3959 27.0936 15.3935 27.0863 15.3391C27.0863 15.3391 26.9914 14.8321 26.9598 14.6565C26.8454 14.0506 26.5972 12.9897 26.4318 12.2553C26.3856 12.0525 26.2104 11.9091 26.0035 11.9091H25.2638C24.9815 11.9091 24.7747 12.1761 24.838 12.4531C25.1665 13.8973 26.0352 17.7082 26.0327 17.7106L25.0667 19.9066C24.9377 20.2009 25.1494 20.5348 25.4658 20.5348C25.967 20.5348 26.5462 20.5348 26.5462 20.5348C26.5924 20.4161 29.2057 14.5032 30.0744 12.5372C30.2058 12.2429 29.9917 11.9091 29.6754 11.9091H28.8797Z" fill="#1D1B36"/>
</svg>
