<svg width="22" height="22" viewBox="0 0 22 22" fill="none" xmlns="http://www.w3.org/2000/svg">
<path d="M11 12.8333L10.2929 13.5404L11 14.2475L11.7071 13.5404L11 12.8333ZM12 4.58325C12 4.03097 11.5523 3.58325 11 3.58325C10.4477 3.58325 10 4.03097 10 4.58325L12 4.58325ZM5.70958 8.95703L10.2929 13.5404L11.7071 12.1261L7.12379 7.54281L5.70958 8.95703ZM11.7071 13.5404L16.2905 8.95703L14.8762 7.54281L10.2929 12.1261L11.7071 13.5404ZM12 12.8333L12 4.58325L10 4.58325L10 12.8333L12 12.8333Z" fill="#34AA54"/>
<path d="M4.58331 14.6667L4.58331 15.5834C4.58331 16.5959 5.40412 17.4167 6.41665 17.4167L15.5833 17.4167C16.5958 17.4167 17.4166 16.5959 17.4166 15.5834V14.6667" stroke="#34AA54" stroke-width="2"/>
</svg>
