<?xml version="1.0" standalone="no"?>
<!DOCTYPE svg PUBLIC "-//W3C//DTD SVG 20010904//EN"
 "http://www.w3.org/TR/2001/REC-SVG-20010904/DTD/svg10.dtd">
<svg version="1.0" xmlns="http://www.w3.org/2000/svg"
 width="202.000000pt" height="52.000000pt" viewBox="0 0 202.000000 52.000000"
 preserveAspectRatio="xMidYMid meet">

<g transform="translate(0.000000,52.000000) scale(0.100000,-0.100000)"
fill="#000000" stroke="none">
<path d="M710 240 c0 -73 4 -120 10 -120 6 0 10 47 10 120 0 73 -4 120 -10
120 -6 0 -10 -47 -10 -120z"/>
<path d="M1990 314 c0 -45 0 -45 -22 -30 -54 38 -138 -7 -138 -74 0 -67 84
-112 138 -74 20 14 22 14 22 0 0 -9 5 -16 10 -16 6 0 10 47 10 120 0 73 -4
120 -10 120 -5 0 -10 -21 -10 -46z m-23 -56 c46 -43 16 -118 -46 -118 -33 0
-71 39 -71 72 0 26 44 68 71 68 13 0 33 -10 46 -22z"/>
<path d="M397 308 c-13 -24 -37 -68 -52 -98 l-28 -54 -27 55 c-27 52 -55 87
-64 78 -3 -2 16 -46 41 -98 l45 -94 22 39 c89 159 116 214 102 214 -8 0 -25
-19 -39 -42z"/>
<path d="M489 271 c-20 -20 -29 -39 -29 -61 0 -67 84 -112 138 -74 20 14 22
14 22 0 0 -9 5 -16 10 -16 6 0 10 37 10 93 -1 76 -3 89 -13 76 -11 -15 -15
-15 -32 -3 -31 23 -73 17 -106 -15z m108 -13 c46 -43 16 -118 -46 -118 -33 0
-71 39 -71 72 0 26 44 68 71 68 13 0 33 -10 46 -22z"/>
<path d="M794 285 c-12 -30 2 -124 21 -145 23 -25 75 -26 103 -2 17 13 22 30
23 82 1 36 -2 67 -7 70 -5 3 -10 -24 -12 -60 -3 -73 -13 -90 -51 -90 -41 0
-51 18 -51 86 0 61 -14 92 -26 59z"/>
<path d="M1055 288 c-32 -19 -44 -40 -45 -81 0 -76 83 -114 144 -66 14 11 23
25 20 31 -4 5 -15 1 -28 -11 -30 -28 -80 -28 -100 1 -29 42 -22 48 59 48 69 0
75 2 75 20 0 51 -76 86 -125 58z m83 -24 c36 -25 22 -37 -43 -36 -45 0 -59 4
-57 14 8 37 62 49 100 22z"/>
<path d="M1269 271 c-21 -21 -29 -39 -29 -64 0 -70 96 -113 151 -67 20 16 21
19 7 20 -9 0 -20 -4 -23 -10 -12 -19 -71 -11 -93 13 -29 30 -28 62 3 92 28 29
61 32 93 9 32 -22 43 -7 13 17 -36 29 -87 25 -122 -10z"/>
<path d="M1499 271 c-37 -37 -38 -79 -3 -120 29 -35 75 -41 112 -15 20 14 22
14 22 0 0 -9 5 -16 10 -16 6 0 10 35 10 84 0 47 -4 88 -10 91 -5 3 -10 -1 -10
-10 0 -15 -2 -15 -22 -1 -35 25 -76 20 -109 -13z m108 -13 c46 -43 16 -118
-46 -118 -33 0 -71 39 -71 72 0 26 44 68 71 68 13 0 33 -10 46 -22z"/>
<path d="M1717 293 c-11 -11 -8 -173 3 -173 6 0 10 21 11 48 1 67 11 96 37
107 12 5 22 13 22 17 0 12 -25 9 -38 -4 -10 -10 -14 -10 -21 0 -4 7 -10 9 -14
5z"/>
<path d="M475 86 c-20 -15 -17 -45 7 -60 12 -7 21 -7 28 0 8 8 4 10 -12 10
-33 -1 -31 36 2 44 20 5 22 7 8 12 -9 4 -24 1 -33 -6z"/>
<path d="M1333 93 c-7 -3 -13 -18 -13 -34 l0 -29 20 20 c29 29 24 54 -7 43z"/>
<path d="M620 75 c0 -8 5 -15 10 -15 6 0 10 7 10 15 0 8 -4 15 -10 15 -5 0
-10 -7 -10 -15z"/>
<path d="M1136 81 c-4 -7 -5 -15 -2 -18 9 -9 19 4 14 18 -4 11 -6 11 -12 0z"/>
<path d="M1237 63 c-6 -33 3 -46 26 -37 19 7 23 24 7 24 -6 0 -10 7 -8 16 2
10 -2 19 -8 21 -6 2 -14 -9 -17 -24z m23 -23 c0 -5 -4 -10 -10 -10 -5 0 -10 5
-10 10 0 6 5 10 10 10 6 0 10 -4 10 -10z"/>
<path d="M1770 85 c0 -5 5 -17 10 -25 5 -8 10 -10 10 -5 0 6 -5 17 -10 25 -5
8 -10 11 -10 5z"/>
<path d="M593 53 c1 -18 6 -28 10 -24 4 4 3 18 -2 32 -9 23 -9 22 -8 -8z"/>
<path d="M662 71 c-18 -11 -11 -45 9 -49 9 -2 19 5 23 14 8 22 -14 46 -32 35z
m23 -31 c-5 -8 -11 -8 -17 -2 -6 6 -7 16 -3 22 5 8 11 8 17 2 6 -6 7 -16 3
-22z"/>
<path d="M716 73 c-11 -12 -6 -22 8 -17 8 3 16 -2 19 -13 4 -15 5 -15 6 3 1
21 -21 39 -33 27z"/>
<path d="M760 70 c0 -5 5 -10 11 -10 5 0 7 5 4 10 -3 6 -8 10 -11 10 -2 0 -4
-4 -4 -10z"/>
<path d="M794 65 c-8 -20 2 -45 18 -44 10 0 10 2 1 6 -13 5 -19 43 -7 43 4 0
15 -10 25 -22 11 -11 19 -16 19 -10 0 6 3 19 6 29 5 15 4 15 -5 3 -8 -12 -13
-12 -23 -2 -16 16 -27 15 -34 -3z"/>
<path d="M879 80 c-5 -15 -4 -60 2 -60 15 0 19 18 10 42 -6 12 -11 21 -12 18z"/>
<path d="M957 73 c-13 -12 -7 -25 6 -14 8 6 18 7 22 3 5 -4 5 -1 1 6 -8 13
-19 16 -29 5z"/>
<path d="M1060 65 c-16 -19 -5 -47 17 -43 11 2 18 12 18 27 0 29 -17 37 -35
16z m30 -21 c0 -16 -16 -19 -25 -4 -8 13 4 32 16 25 5 -4 9 -13 9 -21z"/>
<path d="M1377 73 c-4 -3 -7 -16 -6 -27 0 -19 1 -19 10 3 10 24 8 36 -4 24z"/>
<path d="M1407 73 c-11 -10 -8 -41 4 -49 6 -3 16 -1 22 5 9 9 8 11 -5 6 -14
-6 -18 -2 -18 14 0 12 5 21 10 21 6 0 10 -4 10 -10 0 -5 5 -10 11 -10 8 0 8 5
-1 15 -14 16 -23 19 -33 8z"/>
<path d="M1466 71 c-3 -5 2 -8 12 -7 9 0 17 -6 17 -14 0 -8 -8 -14 -17 -14 -9
1 -19 -4 -22 -12 -5 -14 19 -9 42 9 9 7 17 6 24 -1 14 -14 38 -16 38 -2 0 5
-6 7 -13 4 -7 -2 -24 7 -37 21 -25 27 -35 30 -44 16z"/>
<path d="M1524 69 c-5 -8 -3 -9 6 -4 7 4 16 2 22 -6 8 -12 9 -12 6 0 -6 20
-24 25 -34 10z"/>
<path d="M1600 65 c-14 -17 -1 -47 19 -43 22 4 28 55 6 55 -8 0 -20 -6 -25
-12z m30 -21 c0 -16 -16 -19 -25 -4 -8 13 4 32 16 25 5 -4 9 -13 9 -21z"/>
<path d="M1683 50 c1 -16 5 -30 9 -30 4 0 6 13 5 30 -1 16 -5 30 -9 30 -4 0
-6 -13 -5 -30z"/>
<path d="M1720 65 c-7 -8 -10 -22 -6 -30 6 -17 36 -21 36 -4 0 6 7 8 17 5 13
-5 11 0 -6 18 -29 31 -25 30 -41 11z m25 -25 c-5 -8 -11 -8 -17 -2 -6 6 -7 16
-3 22 5 8 11 8 17 2 6 -6 7 -16 3 -22z"/>
<path d="M1840 70 c0 -5 5 -10 10 -10 6 0 10 5 10 10 0 6 -4 10 -10 10 -5 0
-10 -4 -10 -10z"/>
<path d="M1895 70 c-3 -6 -11 -8 -16 -5 -5 4 -9 -4 -9 -16 0 -12 3 -19 7 -16
3 4 12 2 20 -4 9 -8 17 -8 26 0 8 6 17 8 20 4 4 -3 7 1 7 10 0 26 20 30 29 5
7 -15 10 -17 10 -7 1 9 -5 22 -13 28 -11 10 -19 6 -40 -16 -19 -20 -29 -24
-37 -16 -18 18 -1 37 19 21 13 -11 14 -11 11 1 -7 19 -25 25 -34 11z"/>
<path d="M2009 78 c-6 -11 -3 -58 3 -58 4 0 6 13 5 30 -2 27 -4 35 -8 28z"/>
<path d="M531 53 c-1 -12 4 -25 9 -28 14 -9 40 13 40 34 -1 11 -5 8 -15 -9
l-14 -25 -10 25 c-9 24 -10 24 -10 3z"/>
<path d="M1008 53 c7 -12 10 -30 7 -40 -3 -10 2 -3 10 16 9 18 14 36 11 39 -4
3 -6 0 -6 -8 0 -10 -3 -10 -17 1 -15 13 -15 12 -5 -8z"/>
<path d="M1164 57 c3 -10 6 -28 6 -40 1 -17 4 -15 15 12 17 38 19 53 5 31 -9
-13 -11 -13 -21 0 -9 13 -10 12 -5 -3z"/>
<path d="M1818 51 c-5 -15 -11 -21 -20 -16 -10 6 -11 5 0 -6 16 -17 36 1 30
27 -3 16 -5 15 -10 -5z"/>
<path d="M985 40 c-3 -5 -13 -6 -23 -3 -14 5 -15 3 -4 -8 10 -11 15 -10 29 4
10 9 14 17 11 17 -4 0 -9 -4 -13 -10z"/>
<path d="M1135 40 c-3 -5 -1 -10 4 -10 6 0 11 5 11 10 0 6 -2 10 -4 10 -3 0
-8 -4 -11 -10z"/>
</g>
</svg>
